<mxfile host="www.draw.io" modified="2019-12-27T09:58:16.669Z" agent="Mozilla/5.0 (Macintosh; Intel Mac OS X 10_13_6) AppleWebKit/537.36 (KHTML, like Gecko) Chrome/78.0.3904.108 Safari/537.36" etag="xcntDVwZ7SmqcRUzNV0X" version="12.4.3" type="github" pages="1">
  <diagram id="G5Tv8ZYlZEifsEXK3ju5" name="Page-1">
    <mxGraphModel dx="946" dy="574" grid="1" gridSize="10" guides="1" tooltips="1" connect="1" arrows="1" fold="1" page="1" pageScale="1" pageWidth="827" pageHeight="1169" math="0" shadow="0">
      <root>
        <mxCell id="0"/>
        <mxCell id="1" parent="0"/>
        <mxCell id="02CANnNWIpXMnb3j2q4D-11" value="alt" style="shape=umlFrame;whiteSpace=wrap;html=1;width=60;height=20;" parent="1" vertex="1">
          <mxGeometry x="30" y="250" width="750" height="790" as="geometry"/>
        </mxCell>
        <mxCell id="02CANnNWIpXMnb3j2q4D-12" value="[微信绑定]" style="text;html=1;align=center;verticalAlign=middle;resizable=0;points=[];;autosize=1;" parent="1" vertex="1">
          <mxGeometry x="50" y="292" width="70" height="20" as="geometry"/>
        </mxCell>
        <mxCell id="02CANnNWIpXMnb3j2q4D-1" value="client" style="shape=umlLifeline;perimeter=lifelinePerimeter;whiteSpace=wrap;html=1;container=1;collapsible=0;recursiveResize=0;outlineConnect=0;" parent="1" vertex="1">
          <mxGeometry x="110" y="140" width="100" height="940" as="geometry"/>
        </mxCell>
        <mxCell id="02CANnNWIpXMnb3j2q4D-2" value="vanguard" style="shape=umlLifeline;perimeter=lifelinePerimeter;whiteSpace=wrap;html=1;container=1;collapsible=0;recursiveResize=0;outlineConnect=0;" parent="1" vertex="1">
          <mxGeometry x="240" y="140" width="100" height="940" as="geometry"/>
        </mxCell>
        <mxCell id="02CANnNWIpXMnb3j2q4D-24" value="create wehcat model&lt;br&gt;update user info" style="edgeStyle=orthogonalEdgeStyle;html=1;align=left;spacingLeft=2;endArrow=block;rounded=0;entryX=1;entryY=0;" parent="02CANnNWIpXMnb3j2q4D-2" edge="1">
          <mxGeometry relative="1" as="geometry">
            <mxPoint x="52" y="330" as="sourcePoint"/>
            <Array as="points">
              <mxPoint x="77" y="330"/>
            </Array>
            <mxPoint x="57" y="350" as="targetPoint"/>
          </mxGeometry>
        </mxCell>
        <mxCell id="02CANnNWIpXMnb3j2q4D-47" value="create QQ model&lt;br&gt;update user info" style="edgeStyle=orthogonalEdgeStyle;html=1;align=left;spacingLeft=2;endArrow=block;rounded=0;entryX=1;entryY=0;" parent="02CANnNWIpXMnb3j2q4D-2" edge="1">
          <mxGeometry relative="1" as="geometry">
            <mxPoint x="50" y="750" as="sourcePoint"/>
            <Array as="points">
              <mxPoint x="75" y="750"/>
            </Array>
            <mxPoint x="55" y="770" as="targetPoint"/>
          </mxGeometry>
        </mxCell>
        <mxCell id="02CANnNWIpXMnb3j2q4D-3" value="BP" style="shape=umlLifeline;perimeter=lifelinePerimeter;whiteSpace=wrap;html=1;container=1;collapsible=0;recursiveResize=0;outlineConnect=0;" parent="1" vertex="1">
          <mxGeometry x="370" y="140" width="100" height="940" as="geometry"/>
        </mxCell>
        <mxCell id="02CANnNWIpXMnb3j2q4D-4" value="wechat" style="shape=umlLifeline;perimeter=lifelinePerimeter;whiteSpace=wrap;html=1;container=1;collapsible=0;recursiveResize=0;outlineConnect=0;" parent="1" vertex="1">
          <mxGeometry x="500" y="140" width="100" height="940" as="geometry"/>
        </mxCell>
        <mxCell id="02CANnNWIpXMnb3j2q4D-5" value="QQ" style="shape=umlLifeline;perimeter=lifelinePerimeter;whiteSpace=wrap;html=1;container=1;collapsible=0;recursiveResize=0;outlineConnect=0;" parent="1" vertex="1">
          <mxGeometry x="630" y="140" width="100" height="940" as="geometry"/>
        </mxCell>
        <mxCell id="02CANnNWIpXMnb3j2q4D-13" value="dispatch" style="html=1;verticalAlign=bottom;endArrow=block;entryX=0.5;entryY=0.115;entryDx=0;entryDy=0;entryPerimeter=0;" parent="1" edge="1">
          <mxGeometry width="80" relative="1" as="geometry">
            <mxPoint x="160" y="70" as="sourcePoint"/>
            <mxPoint x="290" y="70.14999999999998" as="targetPoint"/>
          </mxGeometry>
        </mxCell>
        <mxCell id="02CANnNWIpXMnb3j2q4D-14" value="user token, wechat token" style="html=1;verticalAlign=bottom;endArrow=block;entryX=0.5;entryY=0.115;entryDx=0;entryDy=0;entryPerimeter=0;" parent="1" edge="1">
          <mxGeometry x="0.0767" y="12" width="80" relative="1" as="geometry">
            <mxPoint x="160" y="301.5" as="sourcePoint"/>
            <mxPoint x="290" y="301.65" as="targetPoint"/>
            <mxPoint as="offset"/>
          </mxGeometry>
        </mxCell>
        <mxCell id="02CANnNWIpXMnb3j2q4D-15" value="user id, wechat token" style="html=1;verticalAlign=bottom;endArrow=block;entryX=0.5;entryY=0.115;entryDx=0;entryDy=0;entryPerimeter=0;" parent="1" edge="1">
          <mxGeometry width="80" relative="1" as="geometry">
            <mxPoint x="290" y="330" as="sourcePoint"/>
            <mxPoint x="420" y="330.15" as="targetPoint"/>
          </mxGeometry>
        </mxCell>
        <mxCell id="02CANnNWIpXMnb3j2q4D-16" value="return" style="html=1;verticalAlign=bottom;endArrow=open;dashed=1;endSize=8;" parent="1" edge="1">
          <mxGeometry x="0.0728" relative="1" as="geometry">
            <mxPoint x="550.5" y="70" as="sourcePoint"/>
            <mxPoint x="420" y="70" as="targetPoint"/>
            <Array as="points">
              <mxPoint x="520.5" y="70"/>
            </Array>
            <mxPoint as="offset"/>
          </mxGeometry>
        </mxCell>
        <mxCell id="02CANnNWIpXMnb3j2q4D-17" value="access token, openid" style="html=1;verticalAlign=bottom;endArrow=open;dashed=1;endSize=8;" parent="1" edge="1">
          <mxGeometry relative="1" as="geometry">
            <mxPoint x="420.5" y="370" as="sourcePoint"/>
            <mxPoint x="290" y="370" as="targetPoint"/>
          </mxGeometry>
        </mxCell>
        <mxCell id="02CANnNWIpXMnb3j2q4D-19" value="dispatch" style="html=1;verticalAlign=bottom;endArrow=block;" parent="1" edge="1">
          <mxGeometry width="80" relative="1" as="geometry">
            <mxPoint x="160.25" y="50" as="sourcePoint"/>
            <mxPoint x="550" y="50" as="targetPoint"/>
          </mxGeometry>
        </mxCell>
        <mxCell id="02CANnNWIpXMnb3j2q4D-20" value="access token, openid" style="html=1;verticalAlign=bottom;endArrow=block;" parent="1" edge="1">
          <mxGeometry width="80" relative="1" as="geometry">
            <mxPoint x="290.25" y="410" as="sourcePoint"/>
            <mxPoint x="549.75" y="410" as="targetPoint"/>
          </mxGeometry>
        </mxCell>
        <mxCell id="02CANnNWIpXMnb3j2q4D-21" value="return" style="html=1;verticalAlign=bottom;endArrow=open;dashed=1;endSize=8;" parent="1" edge="1">
          <mxGeometry x="0.0728" relative="1" as="geometry">
            <mxPoint x="680" y="90" as="sourcePoint"/>
            <mxPoint x="420" y="90" as="targetPoint"/>
            <Array as="points">
              <mxPoint x="520.5" y="90"/>
            </Array>
            <mxPoint as="offset"/>
          </mxGeometry>
        </mxCell>
        <mxCell id="02CANnNWIpXMnb3j2q4D-22" value="wecht info" style="html=1;verticalAlign=bottom;endArrow=open;dashed=1;endSize=8;" parent="1" edge="1">
          <mxGeometry x="0.0728" relative="1" as="geometry">
            <mxPoint x="550" y="444.5" as="sourcePoint"/>
            <mxPoint x="290" y="444.5" as="targetPoint"/>
            <Array as="points">
              <mxPoint x="390.5" y="444.5"/>
            </Array>
            <mxPoint as="offset"/>
          </mxGeometry>
        </mxCell>
        <mxCell id="02CANnNWIpXMnb3j2q4D-25" value="user info" style="html=1;verticalAlign=bottom;endArrow=open;dashed=1;endSize=8;" parent="1" edge="1">
          <mxGeometry x="0.0728" relative="1" as="geometry">
            <mxPoint x="290.5" y="510" as="sourcePoint"/>
            <mxPoint x="160" y="510" as="targetPoint"/>
            <Array as="points">
              <mxPoint x="260.5" y="510"/>
            </Array>
            <mxPoint as="offset"/>
          </mxGeometry>
        </mxCell>
        <mxCell id="02CANnNWIpXMnb3j2q4D-28" value="" style="line;strokeWidth=1;fillColor=none;align=left;verticalAlign=middle;spacingTop=-1;spacingLeft=3;spacingRight=3;rotatable=0;labelPosition=right;points=[];portConstraint=eastwest;dashed=1;" parent="1" vertex="1">
          <mxGeometry x="30" width="750" height="8" as="geometry"/>
        </mxCell>
        <mxCell id="02CANnNWIpXMnb3j2q4D-29" value="" style="line;strokeWidth=1;fillColor=none;align=left;verticalAlign=middle;spacingTop=-1;spacingLeft=3;spacingRight=3;rotatable=0;labelPosition=right;points=[];portConstraint=eastwest;dashed=1;" parent="1" vertex="1">
          <mxGeometry x="30" y="532" width="750" height="8" as="geometry"/>
        </mxCell>
        <mxCell id="02CANnNWIpXMnb3j2q4D-30" value="[QQ绑定]" style="text;html=1;align=center;verticalAlign=middle;resizable=0;points=[];;autosize=1;" parent="1" vertex="1">
          <mxGeometry x="55" y="560" width="60" height="20" as="geometry"/>
        </mxCell>
        <mxCell id="02CANnNWIpXMnb3j2q4D-31" value="user token, QQ access token" style="html=1;verticalAlign=bottom;endArrow=block;entryX=0.5;entryY=0.115;entryDx=0;entryDy=0;entryPerimeter=0;" parent="1" edge="1">
          <mxGeometry x="0.0767" y="12" width="80" relative="1" as="geometry">
            <mxPoint x="160" y="590" as="sourcePoint"/>
            <mxPoint x="290" y="590.15" as="targetPoint"/>
            <mxPoint as="offset"/>
          </mxGeometry>
        </mxCell>
        <mxCell id="02CANnNWIpXMnb3j2q4D-33" value="dispatch" style="html=1;verticalAlign=bottom;endArrow=block;" parent="1" edge="1">
          <mxGeometry width="80" relative="1" as="geometry">
            <mxPoint x="160.25" y="30" as="sourcePoint"/>
            <mxPoint x="419.75" y="30" as="targetPoint"/>
          </mxGeometry>
        </mxCell>
        <mxCell id="02CANnNWIpXMnb3j2q4D-34" value="return" style="html=1;verticalAlign=bottom;endArrow=open;dashed=1;endSize=8;" parent="1" edge="1">
          <mxGeometry x="0.0728" relative="1" as="geometry">
            <mxPoint x="680" y="120" as="sourcePoint"/>
            <mxPoint x="290" y="120" as="targetPoint"/>
            <Array as="points">
              <mxPoint x="520.5" y="120"/>
            </Array>
            <mxPoint as="offset"/>
          </mxGeometry>
        </mxCell>
        <mxCell id="02CANnNWIpXMnb3j2q4D-35" value="access token" style="html=1;verticalAlign=bottom;endArrow=block;" parent="1" edge="1">
          <mxGeometry width="80" relative="1" as="geometry">
            <mxPoint x="290" y="620" as="sourcePoint"/>
            <mxPoint x="679.75" y="620" as="targetPoint"/>
          </mxGeometry>
        </mxCell>
        <mxCell id="02CANnNWIpXMnb3j2q4D-36" value="client id , openid" style="html=1;verticalAlign=bottom;endArrow=open;dashed=1;endSize=8;" parent="1" edge="1">
          <mxGeometry x="0.0728" relative="1" as="geometry">
            <mxPoint x="680" y="649" as="sourcePoint"/>
            <mxPoint x="290" y="649" as="targetPoint"/>
            <Array as="points">
              <mxPoint x="520.5" y="649"/>
            </Array>
            <mxPoint as="offset"/>
          </mxGeometry>
        </mxCell>
        <mxCell id="02CANnNWIpXMnb3j2q4D-38" value="par" style="shape=umlFrame;whiteSpace=wrap;html=1;" parent="1" vertex="1">
          <mxGeometry x="200" y="670" width="550" height="190" as="geometry"/>
        </mxCell>
        <mxCell id="02CANnNWIpXMnb3j2q4D-39" value="" style="line;strokeWidth=1;fillColor=none;align=left;verticalAlign=middle;spacingTop=-1;spacingLeft=3;spacingRight=3;rotatable=0;labelPosition=right;points=[];portConstraint=eastwest;dashed=1;" parent="1" vertex="1">
          <mxGeometry x="200" y="761" width="550" height="8" as="geometry"/>
        </mxCell>
        <mxCell id="02CANnNWIpXMnb3j2q4D-40" value="acces token, openid" style="html=1;verticalAlign=bottom;endArrow=block;entryX=0.5;entryY=0.115;entryDx=0;entryDy=0;entryPerimeter=0;" parent="1" edge="1">
          <mxGeometry width="80" relative="1" as="geometry">
            <mxPoint x="290" y="710" as="sourcePoint"/>
            <mxPoint x="420" y="710.15" as="targetPoint"/>
          </mxGeometry>
        </mxCell>
        <mxCell id="02CANnNWIpXMnb3j2q4D-41" value="verify 200" style="html=1;verticalAlign=bottom;endArrow=open;dashed=1;endSize=8;" parent="1" edge="1">
          <mxGeometry relative="1" as="geometry">
            <mxPoint x="420.5" y="740" as="sourcePoint"/>
            <mxPoint x="290" y="740" as="targetPoint"/>
          </mxGeometry>
        </mxCell>
        <mxCell id="02CANnNWIpXMnb3j2q4D-42" value="access token, client id, openid" style="html=1;verticalAlign=bottom;endArrow=block;" parent="1" edge="1">
          <mxGeometry x="-0.1276" width="80" relative="1" as="geometry">
            <mxPoint x="290" y="800" as="sourcePoint"/>
            <mxPoint x="679.75" y="800" as="targetPoint"/>
            <mxPoint as="offset"/>
          </mxGeometry>
        </mxCell>
        <mxCell id="02CANnNWIpXMnb3j2q4D-43" value="qq info" style="html=1;verticalAlign=bottom;endArrow=open;dashed=1;endSize=8;" parent="1" edge="1">
          <mxGeometry x="0.0728" relative="1" as="geometry">
            <mxPoint x="680" y="830" as="sourcePoint"/>
            <mxPoint x="290" y="830" as="targetPoint"/>
            <Array as="points">
              <mxPoint x="520.5" y="830"/>
            </Array>
            <mxPoint as="offset"/>
          </mxGeometry>
        </mxCell>
        <mxCell id="02CANnNWIpXMnb3j2q4D-48" value="user info" style="html=1;verticalAlign=bottom;endArrow=open;dashed=1;endSize=8;" parent="1" edge="1">
          <mxGeometry x="0.0728" relative="1" as="geometry">
            <mxPoint x="290.5" y="930" as="sourcePoint"/>
            <mxPoint x="160" y="930" as="targetPoint"/>
            <Array as="points">
              <mxPoint x="260.5" y="930"/>
            </Array>
            <mxPoint as="offset"/>
          </mxGeometry>
        </mxCell>
      </root>
    </mxGraphModel>
  </diagram>
</mxfile>
